HIERARCHY
ROOT Hips
{
	OFFSET 0.000000 71.427986 0.000000
	CHANNELS 6 Xposition Yposition Zposition Xrotation Yrotation Zrotation
	JOINT Pelvis
	{
		OFFSET 0.000000 0.000000 0.000000
		CHANNELS 3 Xrotation Yrotation Zrotation
		JOINT LeftUpLeg
		{
			OFFSET 6.797100 -2.508499 -1.318700
			CHANNELS 3 Xrotation Yrotation Zrotation
			JOINT LeftLeg
			{
				OFFSET 0.069008 -29.241863 0.690200
				CHANNELS 3 Xrotation Yrotation Zrotation
				JOINT LeftFoot
				{
					OFFSET -0.069008 -29.568123 -0.266800
					CHANNELS 3 Xrotation Yrotation Zrotation
					JOINT LeftToeBase
					{
						OFFSET 3.145500 -8.631000 16.059900
						CHANNELS 3 Xrotation Yrotation Zrotation
						End Site
						{
							OFFSET 0.000000 18.501587 0.000000
						}
					}
				}
			}
			JOINT Left_ShortSleeve
			{
				OFFSET 0.265923 -10.480953 1.153800
				CHANNELS 3 Xrotation Yrotation Zrotation
				End Site
				{
					OFFSET 1.725763 19.823879 0.000000
				}
			}
		}
		JOINT RightUpLeg
		{
			OFFSET -6.797100 -2.508499 -1.318700
			CHANNELS 3 Xrotation Yrotation Zrotation
			JOINT RightLeg
			{
				OFFSET -0.082453 -29.241932 0.688000
				CHANNELS 3 Xrotation Yrotation Zrotation
				JOINT RightFoot
				{
					OFFSET 0.082453 -29.568058 -0.264600
					CHANNELS 3 Xrotation Yrotation Zrotation
					JOINT RightToeBase
					{
						OFFSET -3.115300 -8.682800 16.113400
						CHANNELS 3 Xrotation Yrotation Zrotation
						End Site
						{
							OFFSET 0.000000 18.567114 0.000000
						}
					}
				}
			}
			JOINT Right_ShortSleeve
			{
				OFFSET -0.265923 -10.480953 1.153800
				CHANNELS 3 Xrotation Yrotation Zrotation
				End Site
				{
					OFFSET -1.725766 19.823910 0.000000
				}
			}
		}
	}
	JOINT Spine
	{
		OFFSET 0.000000 13.368103 0.470500
		CHANNELS 3 Xrotation Yrotation Zrotation
		JOINT Spine1
		{
			OFFSET 0.147000 13.837402 0.538800
			CHANNELS 3 Xrotation Yrotation Zrotation
			JOINT Spine2
			{
				OFFSET 0.168000 16.242897 -1.435500
				CHANNELS 3 Xrotation Yrotation Zrotation
				JOINT Neck
				{
					OFFSET 0.217200 18.631500 -1.679100
					CHANNELS 3 Xrotation Yrotation Zrotation
					JOINT Head
					{
						OFFSET 0.000000 6.599396 1.385900
						CHANNELS 3 Xrotation Yrotation Zrotation
						JOINT Hat
						{
							OFFSET -0.532200 27.220596 -10.096100
							CHANNELS 3 Xrotation Yrotation Zrotation
							End Site
							{
								OFFSET 0.000000 22.029861 0.000000
							}
						}
						JOINT HairD
						{
							OFFSET -10.777400 17.437393 -1.325900
							CHANNELS 3 Xrotation Yrotation Zrotation
							JOINT HairD1
							{
								OFFSET -3.290299 -11.051193 1.062200
								CHANNELS 3 Xrotation Yrotation Zrotation
								End Site
								{
									OFFSET 0.000000 11.579437 0.000000
								}
							}
						}
						JOINT HairB
						{
							OFFSET -10.777400 17.437393 1.467900
							CHANNELS 3 Xrotation Yrotation Zrotation
							JOINT HairB1
							{
								OFFSET -1.561200 -12.956299 3.590200
								CHANNELS 3 Xrotation Yrotation Zrotation
								End Site
								{
									OFFSET 0.000000 13.534866 0.000000
								}
							}
						}
						JOINT HairA
						{
							OFFSET 9.713100 17.437393 1.467900
							CHANNELS 3 Xrotation Yrotation Zrotation
							JOINT HairA1
							{
								OFFSET 1.561200 -12.956299 3.590200
								CHANNELS 3 Xrotation Yrotation Zrotation
								End Site
								{
									OFFSET 0.000000 13.534866 0.000000
								}
							}
						}
						JOINT HairC
						{
							OFFSET 9.713100 17.437393 -1.325900
							CHANNELS 3 Xrotation Yrotation Zrotation
							JOINT HairC1
							{
								OFFSET 3.290300 -11.051193 1.062200
								CHANNELS 3 Xrotation Yrotation Zrotation
								End Site
								{
									OFFSET 0.000000 11.579437 0.000000
								}
							}
						}
					}
				}
				JOINT LeftShoulder
				{
					OFFSET 5.101800 15.108002 -2.763700
					CHANNELS 3 Xrotation Yrotation Zrotation
					JOINT LeftArm
					{
						OFFSET 9.825497 2.506317 -1.597400
						CHANNELS 3 Xrotation Yrotation Zrotation
						JOINT LeftForeArm
						{
							OFFSET 21.966244 0.000000 0.000000
							CHANNELS 3 Xrotation Yrotation Zrotation
							JOINT LeftHand
							{
								OFFSET 33.879036 0.000000 0.000000
								CHANNELS 3 Xrotation Yrotation Zrotation
								JOINT LeftHandThumb1
								{
									OFFSET 6.715286 -2.359680 3.363841
									CHANNELS 3 Xrotation Yrotation Zrotation
									JOINT LeftHandThumb2
									{
										OFFSET 2.507072 -1.447464 1.447461
										CHANNELS 3 Xrotation Yrotation Zrotation
										JOINT LeftHandThumb3
										{
											OFFSET 2.898338 -1.673355 1.673357
											CHANNELS 3 Xrotation Yrotation Zrotation
											End Site
											{
												OFFSET -0.295959 3.727692 -0.131651
											}
										}
									}
								}
								JOINT LeftHandIndex1
								{
									OFFSET 14.190811 -0.254547 3.840278
									CHANNELS 3 Xrotation Yrotation Zrotation
									JOINT LeftHandIndex2
									{
										OFFSET 3.551727 0.000000 -0.000000
										CHANNELS 3 Xrotation Yrotation Zrotation
										JOINT LeftHandIndex3
										{
											OFFSET 2.894196 0.000000 0.000000
											CHANNELS 3 Xrotation Yrotation Zrotation
											End Site
											{
												OFFSET -1.000603 2.690872 0.366626
											}
										}
									}
								}
								JOINT LeftHandMiddle1
								{
									OFFSET 13.776489 0.000000 0.000000
									CHANNELS 3 Xrotation Yrotation Zrotation
									JOINT LeftHandMiddle2
									{
										OFFSET 3.438232 0.000000 0.000000
										CHANNELS 3 Xrotation Yrotation Zrotation
										JOINT LeftHandMiddle3
										{
											OFFSET 3.691551 0.000000 0.000000
											CHANNELS 3 Xrotation Yrotation Zrotation
											End Site
											{
												OFFSET -1.082298 3.499527 0.457670
											}
										}
									}
								}
								JOINT LeftHandRing1
								{
									OFFSET 13.966164 -0.268127 -3.067488
									CHANNELS 3 Xrotation Yrotation Zrotation
									JOINT LeftHandRing2
									{
										OFFSET 3.162567 0.000000 0.000000
										CHANNELS 3 Xrotation Yrotation Zrotation
										JOINT LeftHandRing3
										{
											OFFSET 3.324348 0.000000 0.000000
											CHANNELS 3 Xrotation Yrotation Zrotation
											End Site
											{
												OFFSET -0.861900 3.184998 0.405154
											}
										}
									}
								}
								JOINT LeftHandPinky1
								{
									OFFSET 13.131393 -0.168503 -5.746925
									CHANNELS 3 Xrotation Yrotation Zrotation
									JOINT LeftHandPinky2
									{
										OFFSET 2.849182 0.000000 0.000000
										CHANNELS 3 Xrotation Yrotation Zrotation
										JOINT LeftHandPinky3
										{
											OFFSET 2.805038 0.000000 0.000000
											CHANNELS 3 Xrotation Yrotation Zrotation
											End Site
											{
												OFFSET -0.882500 2.642609 0.325652
											}
										}
									}
								}
							}
							JOINT Left_Sleeve
							{
								OFFSET 6.592125 -0.646545 0.805568
								CHANNELS 3 Xrotation Yrotation Zrotation
								End Site
								{
									OFFSET -0.000179 20.275787 -0.000000
								}
							}
						}
					}
				}
				JOINT RightShoulder
				{
					OFFSET -5.731700 15.108002 -2.763700
					CHANNELS 3 Xrotation Yrotation Zrotation
					JOINT RightArm
					{
						OFFSET -9.825497 2.506317 -1.597400
						CHANNELS 3 Xrotation Yrotation Zrotation
						JOINT RightForeArm
						{
							OFFSET -21.966242 0.000000 0.000000
							CHANNELS 3 Xrotation Yrotation Zrotation
							JOINT RightHand
							{
								OFFSET -33.879032 0.000000 0.000000
								CHANNELS 3 Xrotation Yrotation Zrotation
								JOINT RightHandThumb1
								{
									OFFSET -6.715286 -2.359680 3.363841
									CHANNELS 3 Xrotation Yrotation Zrotation
									JOINT RightHandThumb2
									{
										OFFSET -2.507072 -1.447464 1.447461
										CHANNELS 3 Xrotation Yrotation Zrotation
										JOINT RightHandThumb3
										{
											OFFSET -2.898338 -1.673355 1.673357
											CHANNELS 3 Xrotation Yrotation Zrotation
											End Site
											{
												OFFSET 0.295959 3.727692 -0.131651
											}
										}
									}
								}
								JOINT RightHandIndex1
								{
									OFFSET -14.190811 -0.254547 3.840278
									CHANNELS 3 Xrotation Yrotation Zrotation
									JOINT RightHandIndex2
									{
										OFFSET -3.551727 0.000000 -0.000000
										CHANNELS 3 Xrotation Yrotation Zrotation
										JOINT RightHandIndex3
										{
											OFFSET -2.894196 0.000000 0.000000
											CHANNELS 3 Xrotation Yrotation Zrotation
											End Site
											{
												OFFSET 1.000603 2.690872 0.366626
											}
										}
									}
								}
								JOINT RightHandMiddle1
								{
									OFFSET -13.776489 0.000000 0.000000
									CHANNELS 3 Xrotation Yrotation Zrotation
									JOINT RightHandMiddle2
									{
										OFFSET -3.438232 0.000000 0.000000
										CHANNELS 3 Xrotation Yrotation Zrotation
										JOINT RightHandMiddle3
										{
											OFFSET -3.691551 0.000000 0.000000
											CHANNELS 3 Xrotation Yrotation Zrotation
											End Site
											{
												OFFSET 1.082298 3.499527 0.457670
											}
										}
									}
								}
								JOINT RightHandRing1
								{
									OFFSET -13.966164 -0.268127 -3.067488
									CHANNELS 3 Xrotation Yrotation Zrotation
									JOINT RightHandRing2
									{
										OFFSET -3.162567 0.000000 0.000000
										CHANNELS 3 Xrotation Yrotation Zrotation
										JOINT RightHandRing3
										{
											OFFSET -3.324348 0.000000 0.000000
											CHANNELS 3 Xrotation Yrotation Zrotation
											End Site
											{
												OFFSET 0.861900 3.184998 0.405154
											}
										}
									}
								}
								JOINT RightHandPinky1
								{
									OFFSET -13.131393 -0.168503 -5.746925
									CHANNELS 3 Xrotation Yrotation Zrotation
									JOINT RightHandPinky2
									{
										OFFSET -2.849182 0.000000 0.000000
										CHANNELS 3 Xrotation Yrotation Zrotation
										JOINT RightHandPinky3
										{
											OFFSET -2.805038 0.000000 0.000000
											CHANNELS 3 Xrotation Yrotation Zrotation
											End Site
											{
												OFFSET 0.882500 2.642609 0.325652
											}
										}
									}
								}
							}
							JOINT Right_Sleeve
							{
								OFFSET -6.592125 -0.646545 0.805568
								CHANNELS 3 Xrotation Yrotation Zrotation
								End Site
								{
									OFFSET 0.000179 20.275787 -0.000000
								}
							}
						}
					}
				}
				JOINT Bind_Right_JacketString
				{
					OFFSET -3.534800 11.969597 7.200700
					CHANNELS 3 Xrotation Yrotation Zrotation
					JOINT Bind_Right_JacketString1
					{
						OFFSET -0.319900 -6.102600 2.794100
						CHANNELS 3 Xrotation Yrotation Zrotation
						End Site
						{
							OFFSET 0.000000 6.719452 0.000000
						}
					}
				}
				JOINT Bind_Left_JacketString
				{
					OFFSET 2.904800 11.969597 7.200700
					CHANNELS 3 Xrotation Yrotation Zrotation
					JOINT Bind_Left_JacketString1
					{
						OFFSET 0.364800 -5.904503 3.186800
						CHANNELS 3 Xrotation Yrotation Zrotation
						End Site
						{
							OFFSET 0.000000 6.719513 0.000000
						}
					}
				}
				JOINT HairE
				{
					OFFSET 5.915200 17.612701 -11.592200
					CHANNELS 3 Xrotation Yrotation Zrotation
					JOINT HairE1
					{
						OFFSET 0.289200 -7.171898 -1.284500
						CHANNELS 3 Xrotation Yrotation Zrotation
						End Site
						{
							OFFSET 0.000000 7.291756 0.000000
						}
					}
				}
				JOINT HairF
				{
					OFFSET -0.864800 17.612701 -11.592200
					CHANNELS 3 Xrotation Yrotation Zrotation
					JOINT HairF1
					{
						OFFSET 0.000000 -14.087097 -2.127501
						CHANNELS 3 Xrotation Yrotation Zrotation
						End Site
						{
							OFFSET 0.000000 14.246841 0.000000
						}
					}
				}
				JOINT HairG
				{
					OFFSET -8.087700 17.612701 -11.592200
					CHANNELS 3 Xrotation Yrotation Zrotation
					JOINT HairG1
					{
						OFFSET -0.293600 -6.081398 -0.910100
						CHANNELS 3 Xrotation Yrotation Zrotation
						End Site
						{
							OFFSET 0.000000 6.156120 0.000000
						}
					}
				}
			}
		}
	}
	JOINT Pouch
	{
		OFFSET 0.000000 4.394501 10.847300
		CHANNELS 3 Xrotation Yrotation Zrotation
		End Site
		{
			OFFSET 0.000000 21.880577 0.000000
		}
	}
	JOINT Bag
	{
		OFFSET -13.229000 4.813004 -0.593300
		CHANNELS 3 Xrotation Yrotation Zrotation
		End Site
		{
			OFFSET 0.000000 21.880577 0.000000
		}
	}
	JOINT OccupyGuyFacialAnim_Joint
	{
		OFFSET 1.000000 -70.206398 -1.655000
		CHANNELS 3 Xrotation Yrotation Zrotation
		End Site
		{
			OFFSET 0.000000 21.880577 0.000000
		}
	}
}
MOTION
Frames: 5
Frame Time: 0.033333
2.650143 65.375549 107.523132 -4.302637 1.347007 -0.752017 0.000000 0.000000 0.000000 -36.888622 0.054461 7.024298 22.611384 -1.428023 1.746409 2.510000 7.224926 -15.964403 0.000001 0.000000 0.000001 0.000000 -0.000000 -0.000000 3.232959 -5.737874 7.275716 43.039290 0.348403 1.745884 -31.271324 15.374407 -10.719208 0.000000 -0.000001 0.000000 -0.000000 0.000000 0.000000 7.254933 -1.536700 -1.544754 1.930227 -0.692377 -0.365704 1.933764 -0.690177 -0.346436 11.364858 -3.100298 3.360894 15.816927 -14.817015 8.177328 0.000003 -0.000000 0.000000 0.000003 -0.000000 0.000000 0.000003 -0.000000 0.000001 0.000003 -0.000000 -0.000000 -0.000000 -0.000000 -0.000000 0.000003 -0.000000 -0.000000 -0.000000 -0.000000 -0.000000 0.000003 -0.000000 0.000000 0.000003 -0.000000 0.000000 0.272733 8.171093 -6.630732 -4.285681 3.680198 -53.603010 -0.000006 -33.460328 -0.000008 43.668415 23.856908 -17.110998 1.950652 9.412388 4.672934 11.060223 23.111827 -6.850320 0.000001 -0.000003 0.000004 0.040842 1.674745 -26.007455 2.808735 5.551365 -53.647499 -0.000001 0.000000 0.000003 0.185227 1.815119 -22.361420 1.742829 4.583063 -41.623965 0.000003 0.000000 0.000001 2.048069 5.764749 -26.042871 2.896952 5.614949 -54.554377 0.000001 0.000003 -0.000004 2.833344 6.397945 -32.876470 1.869521 0.633779 -43.349810 -0.000000 -0.000002 0.000004 -0.000001 0.000000 0.000002 0.725789 -10.487621 10.832399 -29.026907 23.216516 62.802585 -0.000009 57.884569 0.000010 12.390265 1.650427 16.184902 -7.946135 -8.692393 -5.192490 9.631806 -12.789065 -1.292834 -0.000001 -0.000001 0.000001 4.188469 -6.404453 61.905044 5.529211 -6.802468 78.187750 -0.000001 -0.000002 0.000002 2.889900 -5.648199 52.511065 6.108119 -6.897487 83.038455 0.000000 -0.000000 0.000001 0.806620 -3.602777 42.838561 6.094362 -6.895832 82.923858 -0.000000 0.000000 0.000002 1.698254 -4.742412 52.681901 5.133860 -6.708291 74.827427 0.000001 0.000004 0.000001 0.000000 -0.000000 0.000001 0.000000 0.000000 0.000000 0.000000 0.000000 0.000000 0.000000 0.000000 0.000000 0.000000 0.000000 0.000000 0.000000 0.000000 0.000000 0.000000 0.000000 0.000000 0.000000 0.000000 0.000000 0.000000 0.000000 0.000000 0.000000 0.000000 0.000000 0.000000 0.000000 0.000000 0.000000 0.000000 0.000000 0.000000 0.000000 0.000000 0.000000 0.000000 0.000000 
4.043354 66.041283 112.768372 -7.790630 -1.549294 0.323586 -0.000000 -0.000000 -0.000000 -32.254383 -0.032738 2.321893 28.492631 -4.414807 4.148824 -2.371921 12.134984 -11.482948 -0.000002 0.000001 -0.000000 -0.000002 0.000000 -0.000000 14.809117 -7.048209 3.667769 35.520006 0.721323 0.052070 -30.819333 18.877950 -7.481886 0.000001 -0.000000 0.000000 -0.000000 -0.000001 0.000001 4.674017 0.471825 -1.791577 0.925966 0.292383 -0.109117 0.919387 0.300786 -0.115579 12.773734 -2.949540 2.345018 21.438847 -14.490777 6.644884 0.000003 0.000000 -0.000000 0.000003 0.000000 -0.000000 0.000003 0.000000 0.000000 0.000003 0.000000 -0.000000 -0.000001 0.000000 0.000000 0.000003 0.000000 -0.000000 -0.000001 0.000000 0.000000 0.000003 0.000000 -0.000000 0.000003 0.000000 -0.000000 0.102178 11.012073 -5.675739 0.903941 10.729834 -52.887616 -0.000007 -31.946253 -0.000012 45.603711 21.458282 -18.304424 2.620969 10.520506 4.861949 11.205794 23.434529 -6.948238 0.000000 0.000002 0.000000 0.378368 2.403158 -27.134964 2.742816 5.502474 -52.963199 -0.000000 0.000001 0.000002 0.201484 1.873714 -22.858329 1.770554 4.613942 -41.969624 0.000003 0.000002 -0.000004 2.018582 5.671678 -26.338400 3.051912 5.721578 -56.123179 0.000001 0.000004 -0.000002 2.983006 6.609660 -33.028455 1.935051 0.702236 -44.135829 -0.000000 -0.000005 0.000000 -0.000002 0.000003 -0.000003 0.658492 -10.358013 10.280189 -23.699185 23.819716 60.571279 -0.000050 57.384729 0.000044 13.408877 -1.376519 18.866277 -7.453256 -9.408709 -3.857911 9.480881 -12.063141 0.014075 -0.000004 0.000002 -0.000000 3.723813 -6.162017 60.380573 5.543770 -6.805459 78.310509 -0.000004 -0.000003 -0.000000 2.600472 -5.427311 49.906198 6.196833 -6.907686 83.776669 0.000005 0.000002 -0.000002 0.733940 -3.426510 40.415360 6.175139 -6.905305 83.596167 -0.000000 -0.000002 0.000002 2.020137 -4.962615 51.317011 5.056961 -6.687091 74.168328 0.000002 0.000004 -0.000002 0.000001 -0.000000 -0.000000 -0.000000 0.000000 0.000000 -0.000000 0.000000 -0.000000 -0.000000 0.000000 0.000000 -0.000000 0.000000 0.000000 -0.000000 0.000000 0.000000 -0.000000 0.000000 0.000000 -0.000000 0.000000 0.000000 -0.000000 0.000000 0.000000 -0.000000 0.000000 0.000000 -0.000000 0.000000 0.000000 -0.000000 -0.000000 -0.000000 -0.000000 -0.000000 -0.000000 -0.000000 -0.000000 -0.000000 
5.422987 66.417358 118.089478 -11.092874 -4.505391 1.353087 -0.000001 -0.000000 -0.000000 -24.169577 0.388959 -3.211831 29.528704 -5.333855 6.990363 -1.589007 14.677672 -4.892936 -0.000001 -0.000000 -0.000000 0.000001 0.000001 0.000001 21.967756 -10.959313 -1.374013 35.232797 2.261634 -1.433582 -27.939427 24.969508 -6.909953 -0.000001 -0.000001 0.000000 -0.000000 0.000002 -0.000001 2.165850 2.168593 -2.029988 -0.036358 1.114621 0.043528 -0.057065 1.113988 0.021616 13.508567 -2.745707 1.495007 26.512440 -13.647441 4.736638 0.000000 -0.000000 0.000001 0.000000 -0.000000 0.000001 0.000000 -0.000000 0.000001 0.000000 -0.000000 0.000000 0.000000 0.000001 -0.000001 0.000000 -0.000000 0.000000 0.000000 0.000001 -0.000001 0.000000 -0.000000 0.000001 0.000000 -0.000000 0.000001 -0.289847 13.534526 -3.549013 5.720875 18.022883 -51.888681 0.000011 -31.263880 0.000006 41.816351 21.130479 -18.810602 2.893155 10.975374 4.935718 11.973510 25.088707 -7.452722 0.000002 -0.000001 0.000001 0.715980 3.083136 -29.542474 2.732936 5.495043 -52.860115 0.000003 0.000001 0.000002 0.438372 2.458857 -24.421768 1.839089 4.688789 -42.814764 0.000001 0.000000 -0.000001 2.287253 6.029180 -27.737972 3.244936 5.845894 -58.038405 0.000001 -0.000000 -0.000004 3.295592 7.010341 -33.625335 1.984166 0.752354 -44.717819 0.000000 -0.000002 0.000003 0.000004 0.000000 -0.000003 0.617976 -10.759455 9.958345 -18.289425 26.170478 58.160037 -0.000032 55.963824 0.000030 16.062558 -2.708812 21.483838 -6.445381 -10.766951 -1.553818 9.352949 -11.496525 0.995056 -0.000002 -0.000001 -0.000000 3.216604 -5.865183 57.962966 5.401875 -6.774781 77.110329 -0.000000 -0.000001 0.000002 2.324778 -5.195013 46.864971 6.228649 -6.911034 84.041072 0.000003 -0.000004 -0.000003 0.614106 -3.168986 37.586135 6.172233 -6.904981 83.571749 -0.000001 -0.000003 -0.000000 2.248105 -5.129834 49.465910 4.861061 -6.628849 72.478839 -0.000000 0.000004 0.000001 0.000002 0.000000 0.000000 0.000000 -0.000000 0.000000 0.000000 0.000000 0.000000 0.000000 -0.000000 -0.000000 0.000000 -0.000000 -0.000000 0.000000 -0.000000 0.000000 0.000000 0.000000 -0.000000 0.000000 -0.000000 -0.000000 0.000000 -0.000000 -0.000000 0.000000 -0.000000 0.000000 0.000000 0.000000 -0.000000 -0.000001 -0.000000 -0.000000 -0.000001 -0.000000 -0.000000 -0.000001 -0.000000 -0.000000 
6.682547 66.443192 123.086563 -14.180853 -7.103208 2.830318 0.000001 -0.000000 -0.000000 -17.921902 0.522581 -6.602195 32.253362 -7.019313 6.636774 -0.379605 16.071987 -4.939452 -0.000000 0.000000 0.000000 0.000004 0.000000 0.000000 24.011421 -16.416997 -8.192806 40.625514 6.277166 -3.427126 -23.811426 30.368906 -8.561622 -0.000000 -0.000002 0.000001 -0.000000 -0.000001 -0.000000 0.067833 3.233743 -2.574121 -0.865148 1.556302 -0.121857 -0.895243 1.535340 -0.148048 13.285802 -2.469718 0.750014 29.831934 -12.491628 2.904041 -0.000000 -0.000001 -0.000000 -0.000000 -0.000001 -0.000000 -0.000000 -0.000001 -0.000000 -0.000000 -0.000001 -0.000000 -0.000000 -0.000000 -0.000000 -0.000000 -0.000001 -0.000000 -0.000000 -0.000000 -0.000000 -0.000000 -0.000001 -0.000000 -0.000000 -0.000001 -0.000000 -0.750014 15.544308 -1.419338 8.875617 25.724128 -50.024589 -0.000003 -32.031986 -0.000010 32.873864 25.677637 -16.703608 2.837804 10.887760 4.915671 13.210219 27.572879 -8.266289 0.000001 0.000003 0.000002 0.962921 3.522581 -32.302003 2.773348 5.525277 -53.280984 0.000001 0.000000 0.000002 0.871496 3.373129 -26.355535 1.919399 4.773719 -43.788483 -0.000001 0.000000 0.000001 2.783819 6.688904 -29.622694 3.415869 5.948600 -59.702001 -0.000002 -0.000001 0.000001 3.661664 7.454668 -34.347030 2.004622 0.772910 -44.958429 0.000000 0.000001 -0.000004 -0.000002 0.000000 -0.000001 0.610659 -11.608896 9.943715 -13.563414 30.296216 56.045425 -0.000010 53.067250 0.000010 19.630421 -0.928393 22.810001 -5.187615 -12.256107 0.893816 9.325050 -11.195741 1.603382 -0.000001 -0.000002 0.000000 2.789215 -5.577471 55.470531 5.160963 -6.715519 75.059455 -0.000000 0.000000 0.000000 2.106631 -4.993029 44.245938 6.216008 -6.909714 83.935990 0.000001 0.000001 -0.000004 0.509735 -2.924521 34.984311 6.111468 -6.897921 83.066350 -0.000000 0.000000 0.000001 2.406145 -5.267197 47.623900 4.618165 -6.547698 70.361733 -0.000002 -0.000001 0.000002 0.000003 -0.000000 -0.000000 -0.000001 0.000000 -0.000000 -0.000001 0.000000 -0.000000 -0.000001 0.000000 -0.000000 -0.000001 0.000000 -0.000000 -0.000001 0.000000 -0.000000 -0.000001 0.000000 -0.000000 -0.000001 0.000000 -0.000000 -0.000001 0.000000 -0.000000 -0.000001 0.000000 -0.000000 -0.000001 0.000000 -0.000000 0.000001 -0.000000 -0.000000 0.000001 -0.000000 -0.000000 0.000001 -0.000000 -0.000000 
7.819817 66.440125 127.571495 -16.966796 -9.281175 5.135638 0.000001 0.000000 -0.000001 -12.980859 0.659894 -10.275615 36.426458 -6.993931 4.099224 -6.621431 16.012356 -1.529192 0.000000 -0.000000 -0.000000 -0.000002 0.000000 -0.000000 22.563340 -20.875146 -15.627922 48.042171 10.811036 -7.064761 -18.164700 31.455866 -8.799369 -0.000001 0.000000 0.000001 -0.000000 -0.000000 -0.000000 -1.541701 3.557914 -3.606704 -1.536199 1.596892 -0.567096 -1.567484 1.553277 -0.590753 12.417218 -2.123757 -0.001486 31.076152 -11.288541 1.204954 0.000002 -0.000002 -0.000000 0.000002 -0.000002 -0.000000 0.000002 -0.000002 -0.000000 0.000002 -0.000002 -0.000000 0.000000 0.000000 -0.000000 0.000002 -0.000002 -0.000000 0.000000 0.000000 -0.000000 0.000002 -0.000002 -0.000000 0.000002 -0.000002 -0.000000 -1.050162 17.101503 -0.308128 9.460998 33.063645 -47.465911 0.000001 -33.995498 0.000006 22.118483 31.547882 -8.338488 2.639069 10.564052 4.860211 14.638837 30.194911 -9.210644 -0.000001 0.000001 -0.000000 0.888545 3.425663 -33.834793 2.863173 5.590853 -54.208322 0.000001 0.000000 0.000002 1.398780 4.372919 -27.440743 1.959723 4.815284 -44.270916 -0.000000 0.000001 -0.000001 3.364252 7.481630 -30.930225 3.450657 5.968671 -60.037028 -0.000001 0.000002 -0.000004 3.868143 7.713813 -34.618855 1.972177 0.740198 -44.576290 -0.000002 -0.000001 0.000003 -0.000002 0.000001 -0.000001 0.642325 -12.342700 10.200972 -10.679586 34.569824 55.451857 0.000014 48.009137 -0.000009 22.892144 3.858922 21.370497 -4.302177 -13.220430 2.006755 9.571419 -11.334386 1.869860 -0.000003 0.000000 0.000002 2.614987 -5.449914 54.556437 4.931139 -6.650361 73.085039 -0.000002 -0.000004 -0.000006 2.027035 -4.913029 43.737803 6.189446 -6.906876 83.715136 0.000000 -0.000001 0.000006 0.530047 -2.907813 33.761447 6.049510 -6.890157 82.550165 0.000000 0.000000 0.000001 2.608929 -5.461887 46.715714 4.464790 -6.491277 69.011111 0.000001 0.000003 0.000001 0.000002 -0.000000 -0.000000 0.000002 0.000000 -0.000000 0.000002 0.000000 -0.000000 0.000002 0.000000 0.000000 0.000002 0.000000 0.000000 0.000002 0.000000 -0.000000 0.000002 0.000000 -0.000000 0.000002 0.000000 0.000000 0.000002 0.000000 0.000000 0.000002 0.000000 -0.000000 0.000002 0.000000 -0.000000 0.000001 0.000000 -0.000001 0.000001 0.000000 -0.000001 0.000001 0.000000 -0.000001 
